<svg width="312" height="80" viewBox="0 0 312 80" fill="none" xmlns="http://www.w3.org/2000/svg">
<path d="M52.0144 30.5513C51.9583 30.4535 51.8778 30.3724 51.7811 30.316C51.6844 30.2596 51.5749 30.2299 51.4633 30.2299H41.6495L44.6691 23.9625C45.9374 21.2039 47.5189 17.7756 53.2486 17.7756C54.3474 17.8207 55.4364 18.0032 56.491 18.3189C57.4546 18.6097 58.4496 18.7806 59.454 18.8278C61.5602 18.8278 62.851 16.7769 62.851 15.6597C62.851 14.1828 61.145 13.3334 58.1744 13.3334C54.2262 13.3334 50.0025 14.6649 47.3679 15.9084C38.0411 20.232 35.3838 24.877 32.485 30.2299H24.181C24.0633 30.2299 23.9478 30.2627 23.8473 30.3248C23.7468 30.3869 23.6651 30.4758 23.611 30.5819L22.5278 32.7322C22.479 32.831 22.4559 32.9409 22.4607 33.0513C22.4654 33.1617 22.4978 33.2691 22.5549 33.3633C22.6119 33.4574 22.6917 33.5354 22.7866 33.5896C22.8816 33.6439 22.9887 33.6727 23.0977 33.6734H30.9525L16.2318 65.4308C16.176 65.5497 16.1573 65.683 16.1782 65.8129C16.1992 65.9428 16.2587 66.0631 16.3488 66.1578L16.6433 66.4677C16.703 66.5305 16.7745 66.5804 16.8536 66.6146C16.9327 66.6488 17.0178 66.6665 17.1038 66.6667H17.2019L23.1996 65.714C23.2981 65.6973 23.3915 65.6579 23.4727 65.5989C23.5538 65.5398 23.6205 65.4627 23.6677 65.3735L39.9359 33.6581H50.2819C50.3953 33.658 50.5066 33.627 50.6041 33.5685C50.7017 33.51 50.782 33.426 50.8367 33.3252L52.0219 31.1787C52.0726 31.0819 52.0985 30.9737 52.0972 30.864C52.0959 30.7544 52.0674 30.6468 52.0144 30.5513Z" fill="#CC0000"/>
<path d="M84.4 41.35C84.4 39.4833 84.7333 37.6833 85.4 35.95C86.1 34.2167 87.0667 32.7 88.3 31.4C89.5333 30.1 91.0167 29.0667 92.75 28.3C94.5167 27.5333 96.4333 27.15 98.5 27.15C100.467 27.15 102.317 27.5333 104.05 28.3C105.817 29.0667 107.333 30.1 108.6 31.4C109.867 32.7 110.867 34.2333 111.6 36C112.367 37.7333 112.75 39.5667 112.75 41.5C112.75 43.3333 112.4 45.1 111.7 46.8C111.033 48.5 110.083 50 108.85 51.3C107.65 52.5667 106.183 53.5833 104.45 54.35C102.717 55.1167 100.8 55.5 98.7 55.5C96.8 55.5 95 55.1167 93.3 54.35C91.6 53.55 90.0833 52.3833 88.75 50.85V63.4H84.4V41.35ZM98.6 31.4C97.2667 31.4 96 31.6667 94.8 32.2C93.6 32.7 92.5667 33.4 91.7 34.3C90.8333 35.1667 90.1333 36.2167 89.6 37.45C89.1 38.65 88.85 39.95 88.85 41.35C88.85 42.7167 89.1 44 89.6 45.2C90.1333 46.4 90.8333 47.45 91.7 48.35C92.5667 49.25 93.6 49.9667 94.8 50.5C96 51 97.2667 51.25 98.6 51.25C99.9333 51.25 101.183 51 102.35 50.5C103.55 49.9667 104.583 49.25 105.45 48.35C106.317 47.45 107 46.4 107.5 45.2C108.033 44 108.3 42.7167 108.3 41.35C108.3 39.9833 108.033 38.7 107.5 37.5C107 36.3 106.317 35.25 105.45 34.35C104.583 33.45 103.55 32.7333 102.35 32.2C101.183 31.6667 99.9333 31.4 98.6 31.4ZM130.123 55.5C128.223 55.5 126.406 55.1167 124.673 54.35C122.94 53.5833 121.423 52.5667 120.123 51.3C118.856 50 117.84 48.4833 117.073 46.75C116.34 45.0167 115.973 43.2 115.973 41.3C115.973 39.4333 116.323 37.65 117.023 35.95C117.723 34.25 118.69 32.75 119.923 31.45C121.156 30.15 122.64 29.1167 124.373 28.35C126.14 27.55 128.056 27.15 130.123 27.15C132.023 27.15 133.84 27.5333 135.573 28.3C137.306 29.0667 138.806 30.1 140.073 31.4C141.373 32.6667 142.39 34.1667 143.123 35.9C143.89 37.6333 144.273 39.45 144.273 41.35C144.273 43.2167 143.923 45 143.223 46.7C142.523 48.4 141.556 49.9 140.323 51.2C139.09 52.5 137.59 53.55 135.823 54.35C134.09 55.1167 132.19 55.5 130.123 55.5ZM130.123 31.4C128.79 31.4 127.523 31.6667 126.323 32.2C125.156 32.7 124.14 33.4 123.273 34.3C122.406 35.2 121.706 36.25 121.173 37.45C120.673 38.65 120.423 39.9333 120.423 41.3C120.423 42.6667 120.673 43.95 121.173 45.15C121.706 46.35 122.406 47.4 123.273 48.3C124.14 49.2 125.156 49.9167 126.323 50.45C127.523 50.9833 128.79 51.25 130.123 51.25C131.456 51.25 132.706 51 133.873 50.5C135.073 49.9667 136.106 49.25 136.973 48.35C137.84 47.45 138.523 46.4 139.023 45.2C139.556 44 139.823 42.7167 139.823 41.35C139.823 39.9833 139.556 38.7 139.023 37.5C138.523 36.3 137.84 35.25 136.973 34.35C136.106 33.45 135.073 32.7333 133.873 32.2C132.706 31.6667 131.456 31.4 130.123 31.4ZM148.617 55V19H153.017V55H148.617ZM185.28 45C184.88 46.4667 184.264 47.85 183.43 49.15C182.597 50.4167 181.58 51.5167 180.38 52.45C179.214 53.3833 177.88 54.1333 176.38 54.7C174.88 55.2333 173.264 55.5 171.53 55.5C169.564 55.5 167.714 55.1167 165.98 54.35C164.247 53.5833 162.747 52.5667 161.48 51.3C160.214 50 159.197 48.4833 158.43 46.75C157.697 45.0167 157.33 43.2 157.33 41.3C157.33 39.4667 157.664 37.7 158.33 36C159.03 34.2667 159.997 32.75 161.23 31.45C162.464 30.15 163.947 29.1167 165.68 28.35C167.447 27.55 169.397 27.15 171.53 27.15C173.13 27.15 174.764 27.45 176.43 28.05C178.13 28.6167 179.647 29.5167 180.98 30.75C182.347 31.9833 183.464 33.55 184.33 35.45C185.197 37.3167 185.647 39.55 185.68 42.15H161.78C161.88 43.3833 162.197 44.5667 162.73 45.7C163.297 46.8 164.014 47.7667 164.88 48.6C165.747 49.4 166.747 50.05 167.88 50.55C169.047 51.0167 170.264 51.25 171.53 51.25C173.63 51.25 175.497 50.6833 177.13 49.55C178.797 48.4167 179.997 46.9 180.73 45H185.28ZM171.53 31.35C169.33 31.35 167.38 32 165.68 33.3C164.014 34.5667 162.864 36.2 162.23 38.2H180.53C179.93 35.9333 178.78 34.2333 177.08 33.1C175.38 31.9333 173.53 31.35 171.53 31.35ZM229.138 41.35V55H224.887V50.7C223.554 52.3 222.021 53.5 220.288 54.3C218.588 55.1 216.771 55.5 214.838 55.5C212.738 55.5 210.821 55.1167 209.088 54.35C207.354 53.5833 205.871 52.5667 204.638 51.3C203.438 50 202.488 48.5 201.788 46.8C201.121 45.1 200.788 43.3333 200.788 41.5C200.788 39.5667 201.154 37.7333 201.888 36C202.654 34.2333 203.671 32.7 204.938 31.4C206.204 30.1 207.704 29.0667 209.438 28.3C211.204 27.5333 213.071 27.15 215.038 27.15C217.104 27.15 219.004 27.5333 220.738 28.3C222.504 29.0667 224.004 30.1 225.238 31.4C226.471 32.7 227.421 34.2167 228.088 35.95C228.788 37.6833 229.138 39.4833 229.138 41.35ZM214.938 31.4C213.604 31.4 212.338 31.6667 211.138 32.2C209.971 32.7333 208.954 33.45 208.088 34.35C207.221 35.25 206.521 36.3 205.988 37.5C205.488 38.7 205.238 39.9833 205.238 41.35C205.238 42.7167 205.488 44 205.988 45.2C206.521 46.4 207.221 47.45 208.088 48.35C208.954 49.25 209.971 49.9667 211.138 50.5C212.338 51 213.604 51.25 214.938 51.25C216.271 51.25 217.538 51 218.738 50.5C219.938 49.9667 220.971 49.25 221.838 48.35C222.704 47.45 223.388 46.4 223.888 45.2C224.421 44 224.688 42.7167 224.688 41.35C224.688 39.95 224.421 38.65 223.888 37.45C223.388 36.2167 222.704 35.1667 221.838 34.3C220.971 33.4 219.938 32.7 218.738 32.2C217.538 31.6667 216.271 31.4 214.938 31.4ZM233.961 41.35C233.961 39.4833 234.294 37.6833 234.961 35.95C235.661 34.2167 236.627 32.7 237.861 31.4C239.094 30.1 240.577 29.0667 242.311 28.3C244.077 27.5333 245.994 27.15 248.061 27.15C250.027 27.15 251.877 27.5333 253.611 28.3C255.377 29.0667 256.894 30.1 258.161 31.4C259.427 32.7 260.427 34.2333 261.161 36C261.927 37.7333 262.311 39.5667 262.311 41.5C262.311 43.3333 261.961 45.1 261.261 46.8C260.594 48.5 259.644 50 258.411 51.3C257.211 52.5667 255.744 53.5833 254.011 54.35C252.277 55.1167 250.361 55.5 248.261 55.5C246.361 55.5 244.561 55.1167 242.861 54.35C241.161 53.55 239.644 52.3833 238.311 50.85V63.4H233.961V41.35ZM248.161 31.4C246.827 31.4 245.561 31.6667 244.361 32.2C243.161 32.7 242.127 33.4 241.261 34.3C240.394 35.1667 239.694 36.2167 239.161 37.45C238.661 38.65 238.411 39.95 238.411 41.35C238.411 42.7167 238.661 44 239.161 45.2C239.694 46.4 240.394 47.45 241.261 48.35C242.127 49.25 243.161 49.9667 244.361 50.5C245.561 51 246.827 51.25 248.161 51.25C249.494 51.25 250.744 51 251.911 50.5C253.111 49.9667 254.144 49.25 255.011 48.35C255.877 47.45 256.561 46.4 257.061 45.2C257.594 44 257.861 42.7167 257.861 41.35C257.861 39.9833 257.594 38.7 257.061 37.5C256.561 36.3 255.877 35.25 255.011 34.35C254.144 33.45 253.111 32.7333 251.911 32.2C250.744 31.6667 249.494 31.4 248.161 31.4ZM266.334 41.35C266.334 39.4833 266.667 37.6833 267.334 35.95C268.034 34.2167 269 32.7 270.234 31.4C271.467 30.1 272.95 29.0667 274.684 28.3C276.45 27.5333 278.367 27.15 280.434 27.15C282.4 27.15 284.25 27.5333 285.984 28.3C287.75 29.0667 289.267 30.1 290.534 31.4C291.8 32.7 292.8 34.2333 293.534 36C294.3 37.7333 294.684 39.5667 294.684 41.5C294.684 43.3333 294.334 45.1 293.634 46.8C292.967 48.5 292.017 50 290.784 51.3C289.584 52.5667 288.117 53.5833 286.384 54.35C284.65 55.1167 282.734 55.5 280.634 55.5C278.734 55.5 276.934 55.1167 275.234 54.35C273.534 53.55 272.017 52.3833 270.684 50.85V63.4H266.334V41.35ZM280.534 31.4C279.2 31.4 277.934 31.6667 276.734 32.2C275.534 32.7 274.5 33.4 273.634 34.3C272.767 35.1667 272.067 36.2167 271.534 37.45C271.034 38.65 270.784 39.95 270.784 41.35C270.784 42.7167 271.034 44 271.534 45.2C272.067 46.4 272.767 47.45 273.634 48.35C274.5 49.25 275.534 49.9667 276.734 50.5C277.934 51 279.2 51.25 280.534 51.25C281.867 51.25 283.117 51 284.284 50.5C285.484 49.9667 286.517 49.25 287.384 48.35C288.25 47.45 288.934 46.4 289.434 45.2C289.967 44 290.234 42.7167 290.234 41.35C290.234 39.9833 289.967 38.7 289.434 37.5C288.934 36.3 288.25 35.25 287.384 34.35C286.517 33.45 285.484 32.7333 284.284 32.2C283.117 31.6667 281.867 31.4 280.534 31.4Z" fill="#262626"/>
</svg>
